<?xml version="1.0" encoding="UTF-8"?>
<svg id="Logos" xmlns="http://www.w3.org/2000/svg" viewBox="0 0 224.71 55.49">
  <defs>
    <style>
      .cls-1, .cls-2, .cls-3 {
        fill-rule: evenodd;
      }

      .cls-1, .cls-4 {
        fill: #119ad7;
      }

      .cls-5 {
        fill: #1f140f;
      }

      .cls-2 {
        fill: #fff;
      }

      .cls-3 {
        fill: #c0e3f6;
      }
    </style>
  </defs>
  <rect class="cls-5" x="6.02" y="5.85" width="32.24" height="32.24"/>
  <polygon class="cls-1" points="22.19 37.53 6.58 21.92 16.68 11.92 21.37 16.52 15.97 21.92 26.88 32.84 22.19 37.53"/>
  <polygon class="cls-3" points="22.19 17.33 26.88 21.92 22.19 26.62 17.49 21.92 22.19 17.33"/>
  <polygon class="cls-2" points="27.59 32.13 23 27.43 28.41 21.92 17.49 11.11 22.09 6.42 37.7 21.92 27.59 32.13"/>
  <polygon class="cls-4" points="63.91 7.47 63.91 5.05 44.03 5.05 44.03 33.8 44.04 37.18 63.91 37.18 63.91 34.76 50.01 34.76 50.01 21.63 62.93 21.63 62.93 19.21 50.01 19.21 50.01 7.47 63.91 7.47"/>
  <path class="cls-5" d="m206.27,5.93l-8.9,22.11c-.09-1.84-.62-3.36-1.61-4.58-1.09-1.34-3.33-2.73-6.73-4.19-2.14-.92-3.6-1.81-4.38-2.67-.78-.86-1.17-1.9-1.17-3.14,0-1.55.47-2.81,1.42-3.77.95-.96,2.17-1.44,3.65-1.44,1.39,0,2.6.39,3.61,1.17,1.01.78,1.77,1.89,2.28,3.34l2.04-1.36c-.77-1.76-1.95-3.12-3.54-4.08-1.59-.96-3.44-1.44-5.57-1.44-2.83,0-5.13.86-6.92,2.57-1.78,1.71-2.68,3.91-2.68,6.59,0,1.96.52,3.57,1.56,4.85,1.04,1.28,2.8,2.42,5.28,3.44l.07.02c4.57,1.89,6.85,4.13,6.85,6.73,0,1.63-.52,2.96-1.54,4-1.03,1.04-2.36,1.55-4,1.55-1.21,0-2.34-.36-3.39-1.08-1.05-.72-1.91-1.73-2.58-3.02l-2.29,1.61c1.14,1.71,2.48,2.98,4.01,3.79,1.54.82,3.37,1.22,5.49,1.22,2.84,0,5.19-.85,7.07-2.53l-.97,2.4h2.79l3.24-8.38h10.83l3.27,8.38h6.2l-13.42-32.09Zm-6.06,21.75l4.56-11.48,4.58,11.48h-9.14Z"/>
  <path class="cls-5" d="m164.52,22.47h12.92v-2.42h-12.92v-11.74h13.9v-2.42h-19.88v28.75l-12.01-28.71-5.69,14.12h-13.3v-11.74h14.42v-2.42h-20.39v32.13h5.97v-15.7h12.38l-6.32,15.7h2.79l3.24-8.38h10.83l3.27,8.38h24.67v-2.42h-13.9v-13.13Zm-24.04,5.2l4.56-11.48,4.58,11.48h-9.14Z"/>
  <path class="cls-4" d="m86.31,33.78l-12.01-28.71-5.69,14.12-.91,2.27-6.32,15.7h2.79l3.24-8.38h10.83l3.27,8.38h6.13c-.12-.21-1.34-3.38-1.34-3.38Zm-18.07-6.97l4.56-11.48,4.58,11.48h-9.14Z"/>
  <path class="cls-5" d="m46.12,43.93c.52-.53,1.18-.8,1.98-.8,1.07,0,1.86.36,2.35,1.07.27.4.42.8.44,1.2h-1.35c-.09-.31-.2-.54-.33-.7-.24-.28-.6-.42-1.07-.42s-.86.2-1.14.59c-.28.4-.42.95-.42,1.68s.15,1.26.44,1.62c.29.36.66.54,1.11.54s.81-.15,1.06-.46c.13-.17.24-.42.33-.75h1.34c-.12.7-.41,1.27-.89,1.71-.47.44-1.08.66-1.82.66-.92,0-1.64-.3-2.16-.89-.52-.6-.79-1.42-.79-2.46,0-1.12.3-1.99.9-2.6"/>
  <polygon class="cls-5" points="58.09 44.4 54.68 44.4 54.68 45.77 57.81 45.77 57.81 46.89 54.68 46.89 54.68 48.55 58.24 48.55 58.24 49.71 53.36 49.71 53.36 43.26 58.09 43.26 58.09 44.4"/>
  <polygon class="cls-5" points="60.62 43.26 62.03 43.26 64.59 47.76 64.59 43.26 65.84 43.26 65.84 49.71 64.5 49.71 61.87 45.13 61.87 49.71 60.62 49.71 60.62 43.26"/>
  <polygon class="cls-5" points="73.13 43.26 73.13 44.4 71.2 44.4 71.2 49.71 69.85 49.71 69.85 44.4 67.91 44.4 67.91 43.26 73.13 43.26"/>
  <path class="cls-5" d="m79.4,43.43c.24.1.44.25.6.45.14.16.24.34.32.54.08.2.12.42.12.68,0,.31-.08.61-.23.9-.15.3-.41.5-.77.63.3.12.51.29.63.51.12.22.19.56.19,1.01v.43c0,.29.01.49.04.6.04.17.12.29.25.37v.16h-1.49c-.04-.14-.07-.26-.09-.35-.04-.18-.05-.37-.06-.56v-.6c-.01-.41-.09-.69-.22-.82-.14-.14-.39-.21-.77-.21h-1.32v2.53h-1.32v-6.45h3.08c.44,0,.78.06,1.02.17m-2.78.95v1.73h1.45c.29,0,.5-.04.65-.11.25-.12.38-.36.38-.73,0-.39-.12-.65-.37-.79-.14-.08-.35-.11-.62-.11h-1.49Z"/>
  <path class="cls-5" d="m88.04,49.13c-.49.5-1.19.75-2.11.75s-1.63-.25-2.11-.75c-.65-.62-.98-1.5-.98-2.66s.33-2.07.98-2.66c.49-.5,1.19-.75,2.11-.75s1.63.25,2.11.75c.65.59.98,1.48.98,2.66s-.33,2.04-.98,2.66m-.84-.98c.31-.39.47-.95.47-1.68s-.16-1.28-.47-1.68c-.31-.4-.74-.59-1.27-.59s-.96.2-1.28.59c-.32.39-.48.95-.48,1.68s.16,1.29.48,1.68c.32.39.74.59,1.28.59s.96-.2,1.27-.59"/>
  <path class="cls-5" d="m95.22,43.26h1.37v3.96c0,.44.05.77.16.97.16.36.52.54,1.06.54s.9-.18,1.06-.54c.1-.2.16-.53.16-.97v-3.96h1.37v3.96c0,.69-.11,1.22-.32,1.6-.4.7-1.15,1.05-2.27,1.05s-1.87-.35-2.27-1.05c-.21-.38-.32-.92-.32-1.6v-3.96Z"/>
  <polygon class="cls-5" points="103.01 43.26 104.42 43.26 106.98 47.76 106.98 43.26 108.23 43.26 108.23 49.71 106.89 49.71 104.26 45.13 104.26 49.71 103.01 49.71 103.01 43.26"/>
  <rect class="cls-5" x="110.73" y="43.26" width="1.34" height="6.45"/>
  <polygon class="cls-5" points="118.45 43.26 119.85 43.26 117.65 49.71 116.37 49.71 114.19 43.26 115.63 43.26 117.03 48.15 118.45 43.26"/>
  <polygon class="cls-5" points="126.76 44.4 123.35 44.4 123.35 45.77 126.48 45.77 126.48 46.89 123.35 46.89 123.35 48.55 126.92 48.55 126.92 49.71 122.03 49.71 122.03 43.26 126.76 43.26 126.76 44.4"/>
  <path class="cls-5" d="m133.44,43.43c.24.1.44.25.6.45.14.16.24.34.32.54.08.2.12.42.12.68,0,.31-.08.61-.23.9-.15.3-.41.5-.77.63.3.12.51.29.63.51.12.22.19.56.19,1.01v.43c0,.29.01.49.04.6.04.17.12.29.25.37v.16h-1.49c-.04-.14-.07-.26-.09-.35-.04-.18-.05-.37-.06-.56v-.6c-.01-.41-.09-.69-.22-.82-.14-.14-.39-.21-.77-.21h-1.32v2.53h-1.32v-6.45h3.08c.44,0,.78.06,1.02.17m-2.78.95v1.73h1.45c.29,0,.5-.04.65-.11.25-.12.38-.36.38-.73,0-.39-.12-.65-.37-.79-.14-.08-.35-.11-.62-.11h-1.49Z"/>
  <path class="cls-5" d="m138.09,47.72c.04.29.12.51.25.66.22.27.61.4,1.15.4.33,0,.59-.04.79-.1.38-.13.58-.38.58-.75,0-.21-.09-.38-.28-.49-.19-.11-.49-.21-.89-.3l-.7-.15c-.69-.15-1.16-.32-1.41-.49-.43-.3-.65-.76-.65-1.4,0-.58.21-1.06.64-1.44.43-.38,1.05-.57,1.87-.57.69,0,1.27.18,1.76.54.49.36.74.88.76,1.57h-1.29c-.02-.39-.2-.66-.52-.83-.21-.11-.48-.16-.8-.16-.36,0-.64.07-.85.21-.21.14-.32.34-.32.59,0,.23.1.4.31.52.13.08.42.16.86.27l1.13.27c.5.12.87.27,1.11.47.39.3.58.74.58,1.32s-.23,1.08-.68,1.47c-.46.39-1.1.58-1.93.58s-1.52-.19-2-.58c-.49-.38-.73-.91-.73-1.58h1.29Z"/>
  <rect class="cls-5" x="144.33" y="43.26" width="1.34" height="6.45"/>
  <polygon class="cls-5" points="152.95 43.26 152.95 44.4 151.02 44.4 151.02 49.71 149.67 49.71 149.67 44.4 147.73 44.4 147.73 43.26 152.95 43.26"/>
  <path class="cls-5" d="m156.93,43.26h1.52l2.28,6.45h-1.46l-.43-1.32h-2.37l-.44,1.32h-1.41l2.3-6.45Zm-.09,4.01h1.65l-.81-2.54-.84,2.54Zm2.33-5.83l-1.33,1.31h-.9l.84-1.31h1.39Z"/>
  <path class="cls-5" d="m167.03,43.43c.24.1.44.25.6.45.14.16.24.34.32.54.08.2.12.42.12.68,0,.31-.08.61-.23.9-.15.3-.41.5-.77.63.3.12.51.29.63.51.12.22.19.56.19,1.01v.43c0,.29.01.49.04.6.04.17.12.29.25.37v.16h-1.49c-.04-.14-.07-.26-.09-.35-.04-.18-.05-.37-.06-.56v-.6c-.01-.41-.09-.69-.22-.82-.14-.14-.39-.21-.77-.21h-1.32v2.53h-1.32v-6.45h3.08c.44,0,.78.06,1.02.17m-2.78.95v1.73h1.45c.29,0,.5-.04.65-.11.25-.12.38-.36.38-.73,0-.39-.12-.65-.37-.79-.14-.08-.35-.11-.62-.11h-1.49Z"/>
  <rect class="cls-5" x="170.6" y="43.26" width="1.34" height="6.45"/>
  <path class="cls-5" d="m179.5,49.13c-.49.5-1.19.75-2.11.75s-1.63-.25-2.11-.75c-.65-.62-.98-1.5-.98-2.66s.33-2.07.98-2.66c.49-.5,1.19-.75,2.11-.75s1.63.25,2.11.75c.65.59.98,1.48.98,2.66s-.33,2.04-.98,2.66m-.84-.98c.31-.39.47-.95.47-1.68s-.16-1.28-.47-1.68c-.31-.4-.74-.59-1.27-.59s-.96.2-1.28.59c-.32.39-.48.95-.48,1.68s.16,1.29.48,1.68c.32.39.74.59,1.28.59s.96-.2,1.27-.59"/>
  <rect class="cls-5" x="6.02" y="46.09" width="36.82" height=".95"/>
  <rect class="cls-5" x="182.87" y="46.09" width="36.82" height=".95"/>
  <path class="cls-4" d="m86.74,5.07h8.72c2.7,0,5.02.31,6.96.92,1.94.62,3.56,1.6,4.85,2.96,1.48,1.54,2.6,3.32,3.34,5.33.75,2.01,1.12,4.21,1.12,6.6,0,2.27-.34,4.39-1.01,6.38-.67,1.99-1.65,3.73-2.94,5.21-1.29,1.49-2.87,2.66-4.76,3.51-1.89.86-4.05,1.28-6.49,1.28h-9.79V5.07Zm6.01,29.84h2.28c1.48,0,2.87-.3,4.18-.9,1.31-.6,2.44-1.49,3.42-2.67.97-1.18,1.74-2.64,2.3-4.37.56-1.73.84-3.73.84-6,0-1.97-.26-3.79-.79-5.44-.53-1.66-1.26-3.08-2.21-4.28-.95-1.19-2.08-2.13-3.39-2.8-1.31-.67-2.75-1.01-4.3-1.01h-2.32v27.46Z"/>
</svg>